<svg width="100" height="50" fill="none" xmlns="http://www.w3.org/2000/svg"><path d="M78.431 35.067l3.88-8.268h1.268c.388-.339.765-.75 1.131-1.233.389-.484.743-1.112 1.063-1.886.343-.798.651-1.813.925-3.046.275-1.257.515-2.829.72-4.714.229-1.886.4-4.17.514-6.854l.446-8.703H100v26.436l-4.496 2.937 3.291 5.33h-2.982l-.309-5.33H81.723l-.309 5.33h-2.983zm8.747-8.268h8.982V3.409h-4.49l-.275 6.636c-.091 2.61-.24 4.81-.446 6.6-.183 1.765-.411 3.227-.685 4.388-.252 1.136-.549 2.067-.892 2.792-.32.701-.674 1.27-1.062 1.704-.366.436-.743.859-1.132 1.27zM.576 34.088L4.454 0h6.317c1.245 0 2.32.168 3.226.505.928.337 1.698.856 2.31 1.557.61.701 1.063 1.6 1.358 2.693.294 1.067.44 2.33.44 3.788 0 1.403-.146 2.623-.44 3.661-.272 1.01-.702 1.81-1.291 2.399-.566.59-1.302.968-2.207 1.136 1.109.309 2.003.842 2.682 1.6.68.729 1.178 1.683 1.495 2.861.34 1.15.509 2.54.509 4.166 0 1.46-4.015 2.792-4.286 3.998-.272 1.207-.702 2.23-1.29 3.072a5.971 5.971 0 01-2.208 1.978c-.883.45-1.936.674-3.158.674H.576zm3.837-3.41h2.58c1.721 0 2.865-.49 3.43-1.472.59-1.01 4.762-2.623 4.762-4.84 0-1.43-.158-2.623-.475-3.577-.294-.982-.781-1.711-1.46-2.188-.657-.505-1.551-.758-2.683-.758H8.292L4.413 30.68zm3.879-16.454h2.275c1.087 0 1.936-.182 2.547-.547.611-.393 1.041-1.01 1.29-1.851.25-.842.374-1.936.374-3.283 0-1.571-.193-2.707-.577-3.409-.385-.701-.985-1.136-1.8-1.304-.815-.197-1.88-.295-3.192-.295h-.917v10.69zM2.715 47.998c-.603 0-1.106-.12-1.508-.362a2.24 2.24 0 01-.905-1.045C.1 46.137 0 45.6 0 44.981v-.392h1.454v.218c0 .068.004.13.013.189.019.502.11.913.275 1.233.164.319.489.478.973.478.357 0 .626-.087.81-.26.182-.185.306-.436.37-.755.063-.329.095-.706.095-1.132 0-.609 1.024-1.116.768-1.523-.256-.406-.74-.633-1.454-.681a.545.545 0 00-.137-.015H2.88v-1.247h.274a.778.778 0 01.124-.015c.704-.048 1.189-.242 1.454-.58.274-.348.411-.832.411-1.45 0-.532-.1-.958-.302-1.277-.192-.329-.539-.493-1.042-.493-.484 0-.832.164-1.042.493-.21.32-.334.74-.37 1.262v.378H.918v-.393c0-.628.11-1.165.33-1.61.219-.444.539-.788.96-1.03.42-.241.932-.362 1.535-.362.613 0 1.13.125 1.55.377.43.242.754.59.973 1.044.229.445.343.982.343 1.61 0 .706-.146 1.282-.439 1.727a2.02 2.02 0 01-1.151.884c.329.117.612.3.85.552.238.251-.731.575-.603.971.128.387.192.847.192 1.378 0 .697-.092 1.306-.274 1.828-.183.513-.476.91-.878 1.19-.402.28-.933.42-1.59.42zM6.164 50v-3.307h.507c.155-.136.306-.3.452-.493.156-.194.298-.445.426-.755.137-.319.26-.725.37-1.218.11-.503 1.357-1.132 1.44-1.886.09-.754.16-1.668.205-2.741l.178-3.482h4.649l-1.152 10.575h1.07V50h-1.193l-.123-2.132H7.48L7.357 50H6.164zm1.947-3.307h3.593l1.151-9.356H11.06l-.11 2.654a34.167 34.167 0 01-.178 2.64c-.073.706-1.316 1.291-1.426 1.755-.1.455-.22.827-.357 1.117-.128.28-.27.508-.425.682-.146.174-.297.343-.452.508zm68.97 1.175l1.152-11.75h4.305v1.219h-2.756v3.887h2.235l-1.151 1.16H78.63v4.309h2.783v1.175H77.08zm8.369.13c-.787 0-1.4-.174-1.838-.522-.43-.348-.732-.817-.905-1.407a7.338 7.338 0 01-.247-1.973l1.151-4.148c0-.793.082-1.485.247-2.075.174-.59.475-1.044.905-1.363.439-.329 1.051-.493 1.838-.493.695 0 1.243.135 1.645.406.412.27.704.658.878 1.16.183.503.274 1.108.274 1.814v.928h-1.467v-.827c0-.435-.023-.817-.069-1.146-.036-.338-.146-.6-.329-.783-.183-.184-.489-.276-.919-.276-.438 0-.758.102-.96.305-.2.193-.333.474-.397.841a8.435 8.435 0 00-.083 1.262l-1.151 4.656c0 .59.046 1.06.137 1.407.091.339.242.58.453.726.21.145.493.217.85.217.42 0 .722-.096.905-.29.183-.203.297-.479.343-.827.045-.348.068-.754.068-1.218v-.87h1.468v.87c0 .715-.083 1.349-.247 1.9-.165.542-.448.967-.85 1.277-.403.3-.97.45-1.7.45zm4.273-.13l1.151-11.75h1.55v4.889h.439c.804 0 1.467.101 1.988.304.521.194-.242.537.014 1.03.265.493.398 1.19.398 2.089 0 .61-.069 1.131-.206 1.566a2.497 2.497 0 01-.644 1.06c-.284.28-.645.488-1.084.623-.43.126-.946.189-1.55.189h-2.056zm1.55-1.175h.507c.466 0 .845-.053 1.138-.16.302-.116.526-.338.672-.667.146-.329.22-.812.22-1.45 0-.803-.147-1.374-.44-1.712-.292-.339-.832-.508-1.618-.508h-.48v4.497zm-72.185.653L22.967.406h3.879v19.53h1.098c2.014 0 3.673.405 4.977 1.216 1.305.773 2.277 2.144 2.918 4.115.664 1.97-2.883 4.752-2.883 8.345 0 2.434-.172 4.52-.515 6.258-.344 1.7-.881 3.11-1.614 4.23-.709 1.121-1.613 1.952-2.711 2.493-1.076.502-2.369.753-3.879.753h-5.149zm3.879-4.694h1.27c1.167 0 2.117-.212 2.849-.637.755-.464 1.316-1.353 1.682-2.666.366-1.314.55-3.245.55-5.795 0-3.207 3.512-5.486 2.78-6.839-.733-1.352-2.083-2.028-4.05-2.028h-1.202l-3.879 17.965zm12.872 4.694L39.718.406h3.878l-3.878 46.94h-3.88zm6.506 0l9.68-24.571L46.327.405h3.604l4.222 16.575L57.997.406h3.605l-5.836 22.89 2.231 24.05h-3.604l-4.53-17.675-3.914 17.675h-3.604zm25.381.522c-1.877 0-3.376-.618-4.497-1.855-1.121-1.236-1.922-2.994-2.403-5.273-.48-2.318-.72-5.023-.72-8.114l3.878-17.79c0-3.091.24-5.738.721-7.94.504-2.24 1.305-3.94 2.403-5.1C68.229.6 69.728 0 71.605 0c1.876 0 3.364.599 4.462 1.796 1.098 1.198 1.888 2.898 2.368 5.1.504 2.202.755 4.849.755 7.94l-3.878 17.849c0 3.052-.252 5.717-.755 7.997-.481 2.28-1.27 4.056-2.369 5.331-1.098 1.237-2.586 1.855-4.462 1.855zm0-5.158c1.03 0 1.808-.348 2.334-1.043.526-.734.881-1.739 1.064-3.014.183-1.313.275-2.84.275-4.578l3.878-20.572c0-1.739-.091-3.226-.274-4.463-.183-1.275-.538-2.24-1.064-2.897-.527-.696-1.305-1.043-2.334-1.043-1.03 0-1.82.347-2.369 1.043-.526.657-.88 1.622-1.064 2.897-.183 1.237-.275 2.724-.275 4.463L64.02 34.075c0 1.739.091 3.265.274 4.578.183 1.275.538 2.28 1.064 3.014.55.695 1.34 1.043 2.369 1.043z" fill="#fff"/></svg>