<svg width="156" height="87" fill="none" xmlns="http://www.w3.org/2000/svg"><path d="M122.353 61.016l6.051-14.386h1.979a13.76 13.76 0 001.765-2.146c.606-.841 1.158-1.935 1.657-3.28.535-1.389 1.017-3.156 1.444-5.301.428-2.188.803-4.922 1.124-8.203.356-3.28.623-7.256.802-11.925L137.87.63H156v46l-7.014 5.11 5.135 9.276h-4.653l-.482-9.275h-21.499l-.481 9.275h-4.653zm13.645-14.386h14.012V5.93h-7.006l-.428 11.547c-.142 4.543-.374 8.371-.695 11.484-.285 3.07-.642 5.616-1.07 7.635-.392 1.977-.855 3.597-1.39 4.859-.499 1.22-1.052 2.208-1.658 2.965a48.98 48.98 0 01-1.765 2.209zM.898 59.312L6.948 0h9.854c1.943 0 3.62.293 5.033.879a8.57 8.57 0 013.602 2.709c.954 1.22 1.66 2.783 2.12 4.686.459 1.856.688 4.052.688 6.59 0 2.442-.23 4.565-.688 6.371-.424 1.758-1.095 3.149-2.013 4.174-.884 1.025-2.031 1.684-3.444 1.977 1.73.537 3.126 1.465 4.185 2.783 1.06 1.269 1.837 2.929 2.331 4.98.53 2 .795 4.417.795 7.248 0 2.539-6.263 4.858-6.687 6.957-.424 2.099-1.095 3.88-2.013 5.345-.883 1.465-2.03 2.612-3.443 3.442-1.378.78-3.02 1.171-4.927 1.171H.898zm5.986-5.93h4.026c2.685 0 4.468-.855 5.351-2.564.918-1.757 7.428-4.564 7.428-8.42 0-2.49-.247-4.565-.741-6.225-.46-1.708-1.219-2.978-2.278-3.807-1.025-.88-2.42-1.319-4.186-1.319h-3.549l-6.05 22.334zm6.051-28.632h3.55c1.695 0 3.02-.317 3.973-.952.953-.683 1.624-1.757 2.013-3.222.388-1.464.583-3.368.583-5.711 0-2.734-.3-4.711-.901-5.932-.6-1.22-1.536-1.977-2.808-2.27-1.271-.341-2.931-.512-4.98-.512h-1.43v18.6zM4.236 83.517c-.942 0-1.726-.21-2.353-.631-.628-.42-1.099-1.026-1.412-1.817C.157 80.278 0 79.344 0 78.267v-.681h2.268v.378c0 .118.007.228.021.328.029.875.171 1.59.428 2.146.257.555.763.833 1.519.833.556 0 .977-.152 1.262-.455.285-.32.478-.757.577-1.312.1-.572.15-1.228.15-1.969 0-1.06 1.597-1.943 1.198-2.65-.4-.707-1.156-1.102-2.268-1.186a.766.766 0 00-.214-.025h-.449v-2.171h.428a1.1 1.1 0 01.192-.025c1.098-.084 1.854-.42 2.268-1.01.428-.606.642-1.447.642-2.524 0-.925-.157-1.666-.471-2.22-.3-.573-.842-.859-1.626-.859-.756 0-1.298.286-1.626.858-.328.555-.52 1.287-.577 2.196v.656h-2.29v-.681c0-1.094.172-2.028.514-2.802s.842-1.371 1.498-1.792c.656-.42 1.454-.63 2.396-.63.955 0 1.76.218 2.417.655.67.421 1.176 1.027 1.519 1.818.356.774.534 1.708.534 2.801 0 1.229-.228 2.23-.684 3.004-.442.774-1.041 1.287-1.797 1.54.513.201.956.521 1.326.959.371.437-1.14 1-.94 1.69.2.674.3 1.473.3 2.398 0 1.212-.143 2.272-.429 3.18-.285.892-.741 1.582-1.369 2.07-.627.488-1.454.732-2.481.732zM9.615 87v-5.755h.792a5.5 5.5 0 00.706-.858c.242-.336.463-.774.663-1.312.214-.555.406-1.262.577-2.12.172-.875 2.118-1.969 2.246-3.281.143-1.313.25-2.903.32-4.77l.279-6.058h7.252l-1.796 18.4h1.668V87h-1.86l-.193-3.71h-8.6L11.476 87h-1.86zm3.038-5.755h5.605l1.796-16.279h-2.802l-.171 4.619c-.058 1.817-.15 3.348-.279 4.593-.114 1.229-2.053 2.247-2.224 3.054-.157.791-.342 1.439-.556 1.944-.2.488-.42.883-.663 1.186-.228.303-.464.597-.706.883zm107.593 2.045l1.797-20.444h6.717v2.12h-4.3v6.764h3.487l-1.796 2.02h-3.487v7.495h4.342v2.045h-6.76zm13.055.227c-1.227 0-2.182-.303-2.867-.909-.67-.605-1.141-1.422-1.412-2.448-.257-1.026-.385-2.17-.385-3.432l1.797-7.219c0-1.38.128-2.583.385-3.61.271-1.025.741-1.816 1.411-2.372.685-.572 1.641-.858 2.867-.858 1.084 0 1.94.236 2.567.707.642.471 1.098 1.144 1.369 2.02.285.874.428 1.926.428 3.154v1.615h-2.289v-1.438c0-.758-.036-1.422-.107-1.994-.057-.59-.228-1.043-.513-1.363-.286-.32-.763-.48-1.434-.48-.684 0-1.183.177-1.497.53-.314.337-.521.825-.62 1.464a16.276 16.276 0 00-.129 2.196l-1.796 8.102c0 1.026.071 1.842.214 2.448.142.589.378 1.01.706 1.262.328.252.77.379 1.326.379.656 0 1.127-.169 1.412-.505.285-.354.463-.833.535-1.439.071-.605.107-1.312.107-2.12v-1.514h2.289v1.514c0 1.245-.129 2.347-.385 3.306-.257.943-.699 1.683-1.327 2.221-.627.522-1.511.783-2.652.783zm6.667-.227l1.796-20.444h2.417v8.506h.685c1.255 0 2.289.176 3.102.53.813.336-.378.933.022 1.792.413.858.62 2.07.62 3.634 0 1.06-.107 1.969-.321 2.726-.214.74-.549 1.354-1.005 1.842-.442.488-1.006.85-1.69 1.086-.671.218-1.476.328-2.418.328h-3.208zm2.417-2.045h.791c.728 0 1.32-.092 1.776-.277.471-.202.82-.59 1.048-1.161.228-.572.342-1.414.342-2.524 0-1.397-.228-2.39-.684-2.978-.456-.59-1.298-.884-2.524-.884h-.749v7.824zM29.778 82.382L35.828.706h6.051v33.981h1.714c3.141 0 5.73.706 7.764 2.118 2.035 1.344 3.552 3.73 4.552 7.16 1.035 3.427-4.498 8.268-4.498 14.52 0 4.234-.268 7.865-.803 10.89-.536 2.957-1.375 5.411-2.517 7.36-1.107 1.95-2.517 3.395-4.23 4.336-1.678.874-3.695 1.311-6.051 1.311h-8.032zm6.05-8.167h1.982c1.82 0 3.302-.37 4.444-1.11 1.178-.806 2.053-2.352 2.624-4.638.571-2.286.857-5.647.857-10.084 0-5.579 5.48-9.545 4.337-11.898-1.142-2.353-3.248-3.53-6.319-3.53H41.88l-6.05 31.26zm20.08 8.167L61.96.706h6.05l-6.05 81.676h-6.051zm10.15 0l15.1-42.754L72.27.706h5.622l6.587 28.839L90.475.705h5.622l-9.103 39.83 3.48 41.847h-5.622l-7.068-30.754-6.104 30.754h-5.623zm39.594.908c-2.927 0-5.265-1.076-7.014-3.227-1.75-2.151-3-5.21-3.749-9.176-.75-4.033-1.124-8.739-1.124-14.117l6.05-30.956c0-5.378.375-9.983 1.125-13.815.785-3.899 2.035-6.856 3.748-8.873C106.438 1.042 108.776 0 111.703 0c2.927 0 5.248 1.042 6.961 3.126 1.714 2.084 2.945 5.042 3.695 8.873.785 3.832 1.178 8.437 1.178 13.815l-6.051 31.057c0 5.31-.392 9.95-1.178 13.915-.749 3.966-1.981 7.059-3.695 9.277-1.713 2.151-4.033 3.227-6.961 3.227zm0-8.975c1.607 0 2.82-.605 3.642-1.814.821-1.278 1.374-3.026 1.659-5.244.286-2.286.429-4.94.429-7.966l6.051-35.796c0-3.026-.143-5.614-.429-7.765-.285-2.218-.839-3.899-1.66-5.042-.821-1.21-2.034-1.815-3.641-1.815-1.606 0-2.838.606-3.695 1.816-.821 1.142-1.374 2.823-1.66 5.041-.285 2.151-.428 4.74-.428 7.765L99.87 59.29c0 3.025.142 5.68.428 7.966.285 2.218.838 3.966 1.66 5.243.856 1.21 2.088 1.816 3.694 1.816z" fill="#F2F2F2"/></svg>